<?xml version="1.0" encoding="UTF-8"?>
<svg version="1.1" xmlns="http://www.w3.org/2000/svg" width="1024" height="1024" viewBox="0 0 1024 1024">
  <path d="M0 0 C337.92 0 675.84 0 1024 0 C1024 337.92 1024 675.84 1024 1024 C686.08 1024 348.16 1024 0 1024 C0 686.08 0 348.16 0 0 Z " fill="#FDFEFE" transform="translate(0,0)"/>

  <path 
    d="M0 0 C1.26058228 -0.00137466 2.52116455 -0.00274933 3.81994629 -0.00416565 C5.20912194 -0.00062697 6.59829736 0.00300783 7.98747253 0.00672913 C9.45617165 0.00701132 10.92487091 0.00685263 12.39356995 0.00628662 C16.37456425 0.00599991 20.35552837 0.01187632 24.33651567 0.01886058 C28.4991937 0.02511505 32.66187244 0.02569957 36.82455444 0.02688599 C44.70444732 0.02999312 52.58432631 0.0381982 60.46421307 0.04823548 C71.11424189 0.06150663 81.7642745 0.06690151 92.4143095 0.07273769 C109.1902538 0.08213849 125.9661688 0.10206154 142.74211121 0.12025452 C142.74211121 25.86025452 142.74211121 51.60025452 142.74211121 78.12025452 C127.81283386 78.17632874 127.81283386 78.17632874 112.58195496 78.23353577 C106.27920662 78.26380921 99.97647671 78.29483116 93.67375183 78.32923889 C83.66831632 78.38372097 73.66293201 78.43513409 63.65739441 78.46669006 C56.37028638 78.48968659 49.0833128 78.52310306 41.79631144 78.56895608 C37.93900572 78.59286607 34.08183297 78.61160937 30.22445488 78.61786842 C26.59070307 78.62392942 22.95729137 78.64396546 19.32366562 78.67453003 C17.36054189 78.68746002 15.39733864 78.68574309 13.43417358 78.68353271 C5.23320486 78.77073236 0.39001934 79.73508382 -6.50788879 84.24525452 C-11.35017295 89.3076425 -12.39957941 94.80280067 -12.69538879 101.68275452 C-12.48659081 108.46868911 -10.19956581 112.82090016 -5.88288879 117.93275452 C-0.16237009 122.69985344 4.46373416 123.55495637 11.64299011 123.47328186 C12.51882248 123.47544205 13.39465485 123.47760223 14.29702759 123.47982788 C16.19415454 123.48290812 18.09130154 123.47932891 19.98840714 123.4698143 C23.01064112 123.45600019 26.03222364 123.46256247 29.05445862 123.47465515 C37.64602429 123.50548359 46.23743898 123.50095179 54.82902527 123.48060608 C60.0946243 123.46955739 65.35973866 123.48316384 70.62527084 123.51050186 C72.61273787 123.51587243 74.60025554 123.51206175 76.58768082 123.4981041 C93.65379815 123.37979578 110.80361274 125.22858989 125.86711121 133.93275452 C126.65078064 134.36579895 127.43445007 134.79884338 128.24186707 135.24501038 C134.25079999 138.64467805 139.62016888 142.48306745 144.74211121 147.12025452 C145.56711121 147.8047467 146.39211121 148.48923889 147.24211121 149.19447327 C165.54563511 164.73572756 177.43733358 188.28476941 179.74211121 212.12025452 C181.54086169 238.72082381 176.85145507 264.87840548 159.74211121 286.12025452 C159.14011902 286.93236389 158.53812683 287.74447327 157.91789246 288.58119202 C143.22973393 307.94691827 120.29729231 322.20781827 96.05780029 325.64227962 C92.07151058 326.13030625 88.15546264 326.24339629 84.13639832 326.24050903 C83.41494125 326.24136346 82.69348419 326.24221788 81.95016479 326.2430982 C79.55656878 326.24473234 77.16304441 326.23926581 74.76945496 326.23377991 C73.04415895 326.23349756 71.31886283 326.23365669 69.59356689 326.23422241 C64.92682349 326.23450854 60.26010594 326.22864162 55.59336853 326.22164845 C50.71000806 326.21538421 45.82664695 326.21480869 40.94328308 326.21362305 C31.70351794 326.21051878 22.46376467 326.20231759 13.22400475 326.19227356 C0.73295687 326.17899086 -11.75809426 326.17360521 -24.24914742 326.16777134 C-43.91873676 326.15837709 -63.58830106 326.13845212 -83.25788879 326.12025452 C-83.25788879 300.71025452 -83.25788879 275.30025452 -83.25788879 249.12025452 C-71.21159973 249.0828717 -59.16531067 249.04548889 -46.75398254 249.00697327 C-39.12962201 248.97670304 -31.50527677 248.94568349 -23.88093567 248.91127014 C-11.77507402 248.85676872 0.33074512 248.80535647 12.43669128 248.77381897 C21.25317919 248.75083684 30.06955571 248.71743634 38.88595527 248.67155296 C43.55368223 248.6476237 48.22129889 248.62889295 52.88908577 248.62264061 C57.28449106 248.61658844 61.67961415 248.59658375 66.07491493 248.565979 C67.68612457 248.55720091 69.29737109 248.55347573 70.90860367 248.55524635 C73.11352671 248.55690404 75.31759448 248.54015908 77.5223999 248.51898193 C78.75483712 248.51437297 79.98727434 248.509764 81.25705814 248.50501537 C89.40049954 247.60595374 95.00938649 243.4282897 100.11711121 237.24525452 C103.13913511 231.44347867 102.51400944 224.41839763 101.74211121 218.12025452 C99.60876159 211.73003677 94.47220741 207.41249667 88.74211121 204.12025452 C84.6199784 202.89137744 80.56265279 202.97559072 76.29606628 202.97840881 C75.4449678 202.97493439 74.59386932 202.97145996 73.71697998 202.96788025 C71.86838241 202.96053201 70.01977606 202.95518166 68.17116737 202.95158958 C65.2298747 202.94439557 62.28874611 202.92870196 59.34750366 202.9102478 C50.98402823 202.85795317 42.62063877 202.80993452 34.25700378 202.79432678 C29.13636247 202.78414633 24.01612955 202.75456153 18.89565086 202.71300697 C16.95876366 202.70082384 15.02181839 202.69555207 13.08489418 202.6978054 C-17.11697027 202.7242666 -41.21034209 193.22562023 -63.38288879 172.37025452 C-74.37448056 160.97488999 -83.12716654 145.42038704 -87.25788879 130.12025452 C-87.63252258 128.78692078 -87.63252258 128.78692078 -88.01472473 127.426651 C-90.31545841 118.51450743 -90.77768621 110.00187684 -90.69538879 100.87025452 C-90.69032822 99.7800853 -90.69032822 99.7800853 -90.68516541 98.66789246 C-90.50068214 71.23270312 -81.29509618 49.02912891 -62.25788879 29.12025452 C-61.71906067 28.51826233 -61.18023254 27.91627014 -60.62507629 27.29603577 C-47.44272791 13.08692155 -29.83522565 5.28336856 -11.25788879 1.12025452 C-10.49508763 0.94274941 -9.73228647 0.76524431 -8.94637012 0.58236027 C-5.91565422 0.06143002 -3.07569428 -0.00259115 0 0 Z " 
    fill="#1C3B65" 
    transform="translate(320, 310) scale(1.4)"/>

  <path 
    d="M0 0 C14.18842228 -0.09424541 28.3767947 -0.16409826 42.56546783 -0.20724869 C49.15638713 -0.22797604 55.7470937 -0.25601701 62.33789062 -0.30175781 C68.71813497 -0.34575184 75.09817688 -0.3692482 81.4785614 -0.37950897 C83.89258504 -0.3868055 86.3065997 -0.40104807 88.72053528 -0.42292023 C133.47667233 -0.81170093 173.55636557 11.95623818 206.32397461 43.23242188 C220.68460215 57.37673722 232.27937944 74.34975967 240 93 C240.29181152 93.70350586 240.58362305 94.40701172 240.88427734 95.13183594 C245.99917995 107.77274537 249.42624819 120.61785237 252 134 C252.18030762 134.90427734 252.36061523 135.80855469 252.54638672 136.74023438 C253.11227886 140.80686077 253.1815078 144.78567487 253.203125 148.88671875 C253.20882507 149.74320511 253.21452515 150.59969147 253.22039795 151.48213196 C253.22982064 153.29675068 253.23637104 155.11138631 253.24023438 156.92602539 C253.24981064 159.6339547 253.28080438 162.34108083 253.3125 165.04882812 C253.58708535 210.00556436 235.68182084 251.47175748 204.47607422 283.56738281 C174.94227417 312.93553634 135.92988312 326 95 326 C95 300.59 95 275.18 95 249 C99.29 248.67 103.58 248.34 108 248 C130.07703669 243.44803367 148.71685465 232.7042984 161.93359375 214.19140625 C168.54317042 203.98342112 172.39004105 193.77287934 175 182 C175.176521 181.225354 175.35304199 180.45070801 175.53491211 179.65258789 C179.85611123 155.00700865 174.27424603 130.04865492 160.34765625 109.5703125 C147.90829757 92.65278469 130.13172795 83.47371732 110 79 C99.11 78.67 88.22 78.34 77 78 C77 159.84 77 241.68 77 326 C51.59 326 26.18 326 0 326 C0 320.39 0 314.78 0 309 C2.475 307.02 2.475 307.02 5 305 C6.4619384 303.49961438 6.4619384 303.49961438 7.6484375 301.96875 C8.31516479 301.1334375 8.31516479 301.1334375 8.99536133 300.28125 C9.45064209 299.6934375 9.90592285 299.105625 10.375 298.5 C10.85541748 297.88125 11.33583496 297.2625 11.83081055 296.625 C28.40452237 274.90139048 35.45488902 250.29929287 35.375 223.25 C35.37445618 222.55100586 35.37391235 221.85201172 35.37335205 221.13183594 C35.3336741 210.00423279 34.50635884 199.61780961 31 189 C30.67854004 187.98993896 30.67854004 187.98993896 30.35058594 186.95947266 C25.67804603 172.57797973 18.99592484 159.4239141 9 148 C8.42894531 147.3090625 7.85789062 146.618125 7.26953125 145.90625 C4.92344421 143.07935994 3.09382931 141.06255287 0 139 C-0.36914349 136.58308983 -0.36914349 136.58308983 -0.36076355 133.48251343 C-0.36488754 132.31019669 -0.36901154 131.13787994 -0.3732605 129.93003845 C-0.36247467 128.63747635 -0.35168884 127.34491425 -0.34057617 126.01318359 C-0.33973029 124.64344807 -0.34020427 123.27371118 -0.34190369 121.90397644 C-0.34276661 118.17888864 -0.32509308 114.45408895 -0.30418181 110.72906828 C-0.28546435 106.83865019 -0.28366848 102.94822594 -0.28010559 99.05776978 C-0.27077058 91.68770968 -0.24613721 84.31778264 -0.21605712 76.94778121 C-0.1825583 68.55855408 -0.1660385 60.16932069 -0.15097082 51.78004336 C-0.11958884 34.51995187 -0.06680018 17.25998999 0 0 Z " 
    fill="#1C3B65" 
    transform="translate(470, 310) scale(1.4)"/>

  <path d="M0 0 C0.66 0.66 1.32 1.32 2 2 C-2.29 6.29 -6.58 10.58 -11 15 C-11.99 14.67 -12.98 14.34 -14 14 C-13.15695312 13.24074219 -12.31390625 12.48148438 -11.4453125 11.69921875 C-10.33838791 10.69548204 -9.23162553 9.69156642 -8.125 8.6875 C-7.56941406 8.18798828 -7.01382812 7.68847656 -6.44140625 7.17382812 C-3.93211977 4.8912844 -1.89093222 2.83639832 0 0 Z " fill="#DFE6E6" transform="translate(506,639)"/>
  <path d="M0 0 C1.3805087 3.76668598 0.59568159 6.44789173 -0.4375 10.25 C-0.72496094 11.32765625 -1.01242187 12.4053125 -1.30859375 13.515625 C-1.53675781 14.33546875 -1.76492188 15.1553125 -2 16 C-2.84062397 12.90226756 -3.08935201 10.21667249 -3 7 C-2.34 7 -1.68 7 -1 7 C-1.33 5.35 -1.66 3.7 -2 2 C-1.34 2 -0.68 2 0 2 C0 1.34 0 0.68 0 0 Z " fill="#3F6590" transform="translate(761,541)"/>
  <path d="M0 0 C0.66 0.33 1.32 0.66 2 1 C0.64978174 5.41889613 -1.26115668 7.34345343 -5 10 C-3.84414715 6.08788267 -2.64465038 3.1254959 0 0 Z " fill="#336393" transform="translate(275,394)"/>
</svg>